<svg height='300px' width='300px'  fill="#000000" xmlns="http://www.w3.org/2000/svg" xmlns:xlink="http://www.w3.org/1999/xlink" xml:space="preserve" version="1.1" style="shape-rendering:geometricPrecision;text-rendering:geometricPrecision;image-rendering:optimizeQuality;" viewBox="0 0 233 233" x="0px" y="0px" fill-rule="evenodd" clip-rule="evenodd"><defs><style type="text/css">
   
    .fil0 {fill:#000000}
   
  </style></defs><g><path class="fil0" d="M144 25c6,1 12,4 18,7 3,2 7,1 10,-2l5 -5c4,-4 9,-4 12,0l19 18c3,4 3,9 0,13l-5 5c-3,3 -4,7 -2,10 3,6 5,12 7,18 1,3 5,6 8,6l8 0c5,0 9,4 9,8l0 27c0,4 -4,8 -9,8l-8 0c-3,0 -7,3 -8,6 -2,6 -4,12 -7,18 -2,3 -1,7 1,10l6 5c3,4 3,9 0,12l-19 19c-3,3 -8,3 -12,0l-5 -6c-3,-2 -7,-3 -10,-1 -6,3 -12,5 -18,7 -3,1 -6,5 -6,8l0 8c0,5 -4,9 -8,9l-27 0c-4,0 -8,-4 -8,-9l0 -8c0,-3 -3,-7 -6,-8 -6,-2 -12,-4 -18,-7 -3,-2 -7,-1 -10,1l-6 6c-3,3 -8,3 -12,0l-18 -19c-4,-3 -4,-8 0,-12l5 -5c3,-3 4,-7 2,-10 -3,-6 -6,-12 -7,-18 -2,-3 -5,-6 -9,-6l-7 0c-5,0 -9,-4 -9,-8l0 -27c0,-4 4,-8 9,-8l7 0c4,0 7,-3 9,-6 1,-6 4,-12 7,-18 2,-3 1,-7 -2,-10l-5 -6c-4,-3 -4,-8 0,-12l18 -18c4,-4 9,-4 13,0l5 5c3,3 7,4 10,2 6,-3 12,-6 18,-7 3,-2 6,-5 6,-9l0 -7c0,-5 4,-9 8,-9l27 0c4,0 8,4 8,9l0 7c0,4 3,7 6,9zm-28 34c32,0 58,26 58,57 0,32 -26,58 -58,58 -31,0 -57,-26 -57,-58 0,-31 26,-57 57,-57z"></path></g></svg>